<mxfile host="app.diagrams.net" agent="Mozilla/5.0 (Windows NT 10.0; Win64; x64) AppleWebKit/537.36 (KHTML, like Gecko) Chrome/91.0.4472.124 Safari/537.36" version="24.7.4">
  <diagram name="Page-1" id="l1amukVxlXoph0i2VulE">
    <mxGraphModel dx="1434" dy="708" grid="1" gridSize="10" guides="1" tooltips="1" connect="1" arrows="1" fold="1" page="1" pageScale="1" pageWidth="827" pageHeight="1169" math="0" shadow="0">
      <root>
        <mxCell id="0" />
        <mxCell id="1" parent="0" />
        <UserObject label="" tags="Background" id="hM3NfsC3jh-NaaqlE_IG-1">
          <mxCell style="vsdxID=1;fillColor=#64b5f6;gradientColor=none;shape=stencil(lVLRDoMgDPwaXgkUZ+azc/9hIk4yJw51c38/GWwCGpK99dordy1FLB+asucIyDAqeeVPUY0NYicEILqGKzEuEWIFYnktFb8oOXWVwX2pmTq6yYd+YTZ9RHcAeRmU4iP9JM6Ge5/KSnOpT/bhDBbiQ2oJ4BLsW63oHN0sw0niaZOIMCVx6bUO+4P44ivdmmGYZv/I/xJfA+44gaddB86udtnxxW/kg+k38wTi0T9fgvVYatG25tbcenhcS8ocJive);strokeColor=#000000;spacingTop=-3;spacingBottom=-3;spacingLeft=-3;spacingRight=-3;points=[];labelBackgroundColor=none;rounded=0;html=1;whiteSpace=wrap;" vertex="1" parent="1">
            <mxGeometry x="187" y="297" width="717" height="58" as="geometry" />
          </mxCell>
        </UserObject>
        <UserObject label="" tags="Background" id="hM3NfsC3jh-NaaqlE_IG-2">
          <mxCell style="vsdxID=2;fillColor=#9999ff;gradientColor=none;shape=stencil(lVLRDoMgDPwaXglS5+Kzc/9hIk4yJw5xc38/GWwCGpK99dordy1FUIxtNTBEyaikuLInr1WL4IQo5X3LJFdLhKBEUDRCsosUU18bPFSaqaObeOgXZtNHdAclL4MA5/BJnA33PlW15iY+2YcztRAfMkugLsG+1fHe0c1znKaeNokIJyQuvdbp/iC++Eq3ZjJMjv/I/xJfA+44gaddB86udtnxxW/kg+k38wTi0T9fgvVYGt515tbcenhcS8ocJpRv);strokeColor=#000000;spacingTop=-3;spacingBottom=-3;spacingLeft=-3;spacingRight=-3;points=[];labelBackgroundColor=none;rounded=0;html=1;whiteSpace=wrap;" vertex="1" parent="1">
            <mxGeometry x="187" y="562" width="717" height="101" as="geometry" />
          </mxCell>
        </UserObject>
        <UserObject label="" tags="Background" id="hM3NfsC3jh-NaaqlE_IG-4">
          <mxCell style="vsdxID=4;fillColor=none;gradientColor=none;shape=stencil(nZBLDoAgDAVP0z3SIyjeg0SURgWD+Lu9EGL8xBW7N828Ji1gOWs5KeBs9s72aqPGa8AKOCejlSMfEqAALFvrVOfsYprEk4xmTKNd44Y99VhscHY8qU7iQOYhFixbvfhXzlZfYgj3hQG+54dReh2KEw==);strokeColor=none;strokeWidth=0;spacingTop=-3;spacingBottom=-3;spacingLeft=-3;spacingRight=-3;points=[];labelBackgroundColor=none;rounded=0;html=1;whiteSpace=wrap;" vertex="1" parent="1">
            <mxGeometry x="71" y="542" width="838" height="21" as="geometry" />
          </mxCell>
        </UserObject>
        <UserObject label="" tags="Background" id="hM3NfsC3jh-NaaqlE_IG-6">
          <mxCell style="vsdxID=6;fillColor=none;gradientColor=none;shape=stencil(nZBLDoAgDAVP0z3SIyjeg0SURgWD+Lu9EGL8xBW7N828Ji1gOWs5KeBs9s72aqPGa8AKOCejlSMfEqAALFvrVOfsYprEk4xmTKNd44Y99VhscHY8qU7iQOYhFixbvfhXzlZfYgj3hQG+54dReh2KEw==);strokeColor=none;strokeWidth=0;spacingTop=-3;spacingBottom=-3;spacingLeft=-3;spacingRight=-3;points=[];labelBackgroundColor=none;rounded=0;html=1;whiteSpace=wrap;" vertex="1" parent="1">
            <mxGeometry x="77" y="274" width="833" height="21" as="geometry" />
          </mxCell>
        </UserObject>
        <UserObject label="" tags="Background" id="hM3NfsC3jh-NaaqlE_IG-7">
          <mxCell style="vsdxID=7;fillColor=#ffe6cc;gradientColor=none;shape=stencil(lZLRDoMgDEW/hleCxZn47Nx/mIiDzIlD3dzfDwabwAzJ3nrLLaeFIlpNvBkZAjLNSl7YQ7QzR/SIAMTAmRKzjhCtEa06qdhZyWVorR4b4zTRVd7NDautI6YCyNOqAudvfbLW29K0xpqF3lCu4CQ+FM4AvsHd1YvBw5YlzvMATRLgjKTR2znszhGyN7frheLiH/g38cH7w0Qd7TbgvdSuO/3sP/ho9niciJ36bx1se9KJvrdr5p/He6VTdidp/QI=);strokeColor=#000000;spacingTop=-3;spacingBottom=-3;spacingLeft=-3;spacingRight=-3;points=[];labelBackgroundColor=none;rounded=0;html=1;whiteSpace=wrap;" vertex="1" parent="1">
            <mxGeometry x="187" y="207" width="717" height="62" as="geometry" />
          </mxCell>
        </UserObject>
        <UserObject label="&lt;div style=&quot;font-size: 1px&quot;&gt;&lt;p style=&quot;text-align:center;margin-left:0;margin-right:0;margin-top:0px;margin-bottom:0px;text-indent:0;vertical-align:middle;direction:ltr;&quot;&gt;&lt;font style=&quot;font-size:12px;font-family:0;color:#000000;direction:ltr;letter-spacing:0px;line-height:120%;opacity:1&quot;&gt;&lt;b&gt;应用层&lt;/b&gt;&lt;/font&gt;&lt;/p&gt;&lt;/div&gt;" tags="Background" id="hM3NfsC3jh-NaaqlE_IG-8">
          <mxCell style="verticalAlign=middle;align=center;overflow=width;vsdxID=8;fillColor=none;gradientColor=none;shape=stencil(nZBLDoAgDAVP0z3SIyjeg0SURgWD+Lu9EGL8xBW7N828Ji1gOWs5KeBs9s72aqPGa8AKOCejlSMfEqAALFvrVOfsYprEk4xmTKNd44Y99VhscHY8qU7iQOYhFixbvfhXzlZfYgj3hQG+54dReh2KEw==);strokeColor=none;strokeWidth=0;spacingTop=-3;spacingBottom=-3;spacingLeft=-3;spacingRight=-3;points=[];labelBackgroundColor=none;rounded=0;html=1;whiteSpace=wrap;" vertex="1" parent="1">
            <mxGeometry x="84" y="433" width="93" height="40" as="geometry" />
          </mxCell>
        </UserObject>
        <UserObject label="&lt;div style=&quot;font-size: 1px&quot;&gt;&lt;p style=&quot;text-align:center;margin-left:0;margin-right:0;margin-top:0px;margin-bottom:0px;text-indent:0;vertical-align:middle;direction:ltr;&quot;&gt;&lt;font style=&quot;font-size:12px;font-family:0;color:#000000;direction:ltr;letter-spacing:0px;line-height:120%;opacity:1&quot;&gt;日&lt;/font&gt;&lt;font style=&quot;font-size:NaNpx;font-family:0;color:#000000;direction:ltr;letter-spacing:0px;line-height:120%;opacity:1&quot;&gt;志&lt;/font&gt;&lt;font style=&quot;font-size:NaNpx;font-family:0;color:#000000;direction:ltr;letter-spacing:0px;line-height:120%;opacity:1&quot;&gt;记&lt;/font&gt;&lt;font style=&quot;font-size:NaNpx;font-family:0;color:#000000;direction:ltr;letter-spacing:0px;line-height:120%;opacity:1&quot;&gt;录&lt;br/&gt;&lt;/font&gt;&lt;font style=&quot;font-size:12px;font-family:0;color:#000000;direction:ltr;letter-spacing:0px;line-height:120%;opacity:1&quot;&gt;log4j&lt;/font&gt;&lt;/p&gt;&lt;/div&gt;" tags="Background" id="hM3NfsC3jh-NaaqlE_IG-9">
          <mxCell style="verticalAlign=middle;align=center;overflow=width;vsdxID=9;fillColor=#ccff99;gradientColor=none;shape=stencil(lVLRDoMgDPwaXgkWjfHZuf8wASeZE4e6ub+frG6CGpK99dordy0lPO/rspMEWD8YfZVPJYaa8BMBUG0tjRrmiPCC8LzSRl6MHluBuCst00Y3/bAvTNjHbAewFyKgCf8kzsi9j6Ww3Mgn+3AChAll2UIAl7C81ajW0c1imkWeNgsIRywsvdbheBBffKUvZlIap//I/xJfA+44G0+HDpxdHbLDi9/Jb6bfzeOLh/98DtZjqVTT4K259e1xzSk8TF68AQ==);strokeColor=#000000;spacingTop=-3;spacingBottom=-3;spacingLeft=-3;spacingRight=-3;points=[];labelBackgroundColor=none;rounded=0;html=1;whiteSpace=wrap;" vertex="1" parent="1">
            <mxGeometry x="823" y="383" width="78" height="158" as="geometry" />
          </mxCell>
        </UserObject>
        <UserObject label="&lt;div style=&quot;font-size: 1px&quot;&gt;&lt;p style=&quot;text-align:center;margin-left:0;margin-right:0;margin-top:0px;margin-bottom:0px;text-indent:0;vertical-align:middle;direction:ltr;&quot;&gt;&lt;font style=&quot;font-size:12px;font-family:0;color:#000000;direction:ltr;letter-spacing:0px;line-height:120%;opacity:1&quot;&gt;&lt;b&gt;前端&lt;/b&gt;&lt;/font&gt;&lt;/p&gt;&lt;/div&gt;" tags="Background" id="hM3NfsC3jh-NaaqlE_IG-10">
          <mxCell style="verticalAlign=middle;align=center;overflow=width;vsdxID=10;fillColor=none;gradientColor=none;shape=stencil(nZBLDoAgDAVP0z3SIyjeg0SURgWD+Lu9EGL8xBW7N828Ji1gOWs5KeBs9s72aqPGa8AKOCejlSMfEqAALFvrVOfsYprEk4xmTKNd44Y99VhscHY8qU7iQOYhFixbvfhXzlZfYgj3hQG+54dReh2KEw==);strokeColor=none;strokeWidth=0;spacingTop=-3;spacingBottom=-3;spacingLeft=-3;spacingRight=-3;points=[];labelBackgroundColor=none;rounded=0;html=1;whiteSpace=wrap;" vertex="1" parent="1">
            <mxGeometry x="84" y="216" width="93" height="43" as="geometry" />
          </mxCell>
        </UserObject>
        <UserObject label="" tags="Background" id="hM3NfsC3jh-NaaqlE_IG-12">
          <mxCell style="vsdxID=12;fillColor=none;gradientColor=none;shape=stencil(nZBLDoAgDAVP0z3SIyjeg0SURgWD+Lu9EGL8xBW7N828Ji1gOWs5KeBs9s72aqPGa8AKOCejlSMfEqAALFvrVOfsYprEk4xmTKNd44Y99VhscHY8qU7iQOYhFixbvfhXzlZfYgj3hQG+54dReh2KEw==);strokeColor=none;strokeWidth=0;spacingTop=-3;spacingBottom=-3;spacingLeft=-3;spacingRight=-3;points=[];labelBackgroundColor=none;rounded=0;html=1;whiteSpace=wrap;" vertex="1" parent="1">
            <mxGeometry x="77" y="362" width="833" height="21" as="geometry" />
          </mxCell>
        </UserObject>
        <UserObject label="&lt;div style=&quot;font-size: 1px&quot;&gt;&lt;p style=&quot;text-align:center;margin-left:0;margin-right:0;margin-top:0px;margin-bottom:0px;text-indent:0;vertical-align:middle;direction:ltr;&quot;&gt;&lt;font style=&quot;font-size:12px;font-family:0;color:#000000;direction:ltr;letter-spacing:0px;line-height:120%;opacity:1&quot;&gt;&lt;b&gt;网关&lt;/b&gt;&lt;/font&gt;&lt;/p&gt;&lt;/div&gt;" tags="Background" id="hM3NfsC3jh-NaaqlE_IG-13">
          <mxCell style="verticalAlign=middle;align=center;overflow=width;vsdxID=13;fillColor=none;gradientColor=none;shape=stencil(nZBLDoAgDAVP0z3SIyjeg0SURgWD+Lu9EGL8xBW7N828Ji1gOWs5KeBs9s72aqPGa8AKOCejlSMfEqAALFvrVOfsYprEk4xmTKNd44Y99VhscHY8qU7iQOYhFixbvfhXzlZfYgj3hQG+54dReh2KEw==);strokeColor=none;strokeWidth=0;spacingTop=-3;spacingBottom=-3;spacingLeft=-3;spacingRight=-3;points=[];labelBackgroundColor=none;rounded=0;html=1;whiteSpace=wrap;" vertex="1" parent="1">
            <mxGeometry x="84" y="306" width="93" height="43" as="geometry" />
          </mxCell>
        </UserObject>
        <UserObject label="&lt;div style=&quot;font-size: 1px&quot;&gt;&lt;p style=&quot;text-align:center;margin-left:0;margin-right:0;margin-top:0px;margin-bottom:0px;text-indent:0;vertical-align:middle;direction:ltr;&quot;&gt;&lt;font style=&quot;font-size:12px;font-family:0;color:#000000;direction:ltr;letter-spacing:0px;line-height:120%;opacity:1&quot;&gt;nginx&lt;/font&gt;&lt;/p&gt;&lt;/div&gt;" tags="Background" id="hM3NfsC3jh-NaaqlE_IG-14">
          <mxCell style="verticalAlign=middle;align=center;overflow=width;vsdxID=14;fillColor=#ffcc99;gradientColor=none;shape=stencil(lZLdEoIgEIWfhlsGln702uo9nBGTycRQy94+aS2BHGa627Oc5WOXJSLrqryVBFjXG32RD1X0FREHAqCaShrVTxERRyKyUht5NnpoCtRtbp02uuq7vWHEOmYrgD1RcUGTd+KE3tuQF9bLfbMvR0AJdMtnA7iG+a5aNQ433dNN6rFZBMxZHL2cw3ojPnyxo052FP6hfxMfvttN8KTVBzijWnXH5/6DD5oP2/HZ8R+fgmVVSlXXuGnuebhaUwrXUhxf);strokeColor=#000000;spacingTop=-3;spacingBottom=-3;spacingLeft=-3;spacingRight=-3;points=[];labelBackgroundColor=none;rounded=0;html=1;whiteSpace=wrap;" vertex="1" parent="1">
            <mxGeometry x="354" y="312" width="159" height="28" as="geometry" />
          </mxCell>
        </UserObject>
        <UserObject label="&lt;div style=&quot;font-size: 1px&quot;&gt;&lt;p style=&quot;text-align:center;margin-left:0;margin-right:0;margin-top:0px;margin-bottom:0px;text-indent:0;vertical-align:top;direction:ltr;&quot;&gt;&lt;font style=&quot;font-size:12px;font-family:0;color:#000000;direction:ltr;letter-spacing:0px;line-height:120%;opacity:1&quot;&gt;&lt;b&gt;数据层&lt;/b&gt;&lt;/font&gt;&lt;/p&gt;&lt;/div&gt;" tags="Background" id="hM3NfsC3jh-NaaqlE_IG-15">
          <mxCell style="verticalAlign=top;align=center;overflow=width;vsdxID=15;fillColor=none;gradientColor=none;shape=stencil(nZBLDoAgDAVP0z3SIyjeg0SURgWD+Lu9EGL8xBW7N828Ji1gOWs5KeBs9s72aqPGa8AKOCejlSMfEqAALFvrVOfsYprEk4xmTKNd44Y99VhscHY8qU7iQOYhFixbvfhXzlZfYgj3hQG+54dReh2KEw==);strokeColor=none;strokeWidth=0;spacingTop=-3;spacingBottom=-3;spacingLeft=-3;spacingRight=-3;points=[];labelBackgroundColor=none;rounded=0;html=1;whiteSpace=wrap;" vertex="1" parent="1">
            <mxGeometry x="94" y="603" width="93" height="43" as="geometry" />
          </mxCell>
        </UserObject>
        <UserObject label="&lt;div style=&quot;font-size: 1px&quot;&gt;&lt;p style=&quot;text-align:center;margin-left:0;margin-right:0;margin-top:0px;margin-bottom:0px;text-indent:0;vertical-align:middle;direction:ltr;&quot;&gt;&lt;font style=&quot;font-size:12px;font-family:0;color:#000000;direction:ltr;letter-spacing:0px;line-height:120%;opacity:1&quot;&gt;配置管理/服务注册&lt;br/&gt;&lt;/font&gt;&lt;font style=&quot;font-size:12px;font-family:0;color:#000000;direction:ltr;letter-spacing:0px;line-height:120%;opacity:1&quot;&gt;Nacos&lt;/font&gt;&lt;/p&gt;&lt;/div&gt;" tags="Background" id="hM3NfsC3jh-NaaqlE_IG-16">
          <mxCell style="verticalAlign=middle;align=center;overflow=width;vsdxID=16;fillColor=#ff9999;gradientColor=none;shape=stencil(fVLbEoIgEP0aXhlc1KZns/9wRkwmE0M0+/uktQR1eNvLWc45yxKe9XXRCQKsN1rdxUuWpib8QgBkWwstzRwRnhOeVUqLm1ZDW2LeFRZpo4ca7QsTzjE7AeyNWULT5Fu4IvY5FKXFRj7YTyfANKYQLwBwActbjWwd3nNCT6nHzQLEEQtTr304NuKTr/BFTEx5yPeO/l/4CXDtbDQdKnB2dYgOL35Hv3G/8+OTh/98DtZjqWTT4K25/e1xzSU8TJ5/AA==);strokeColor=#000000;spacingTop=-3;spacingBottom=-3;spacingLeft=-3;spacingRight=-3;points=[];labelBackgroundColor=none;rounded=0;html=1;whiteSpace=wrap;" vertex="1" parent="1">
            <mxGeometry x="720" y="471" width="94" height="70" as="geometry" />
          </mxCell>
        </UserObject>
        <UserObject label="&lt;div style=&quot;font-size: 1px&quot;&gt;&lt;p style=&quot;text-align:center;margin-left:0;margin-right:0;margin-top:0px;margin-bottom:0px;text-indent:0;vertical-align:middle;direction:ltr;&quot;&gt;&lt;font style=&quot;font-size:12px;font-family:0;color:#000000;direction:ltr;letter-spacing:0px;line-height:120%;opacity:1&quot;&gt;Oracle&lt;/font&gt;&lt;/p&gt;&lt;/div&gt;" tags="Background" id="hM3NfsC3jh-NaaqlE_IG-17">
          <mxCell style="verticalAlign=middle;align=center;overflow=width;vsdxID=17;fillColor=#FFFFFF;gradientColor=none;shape=stencil(nZNBEoIwDEVP06VMSXSQNeo9GCnSESlTQPH2UivSFgR1l7Qv+eknEIyqLC4ZAVrVUpzZjSd1RnBHAHiRMcnrLiK4JxilQrKTFE2R6LyMFamii7iqDq2u8zeqBOhdp/SZHTSZ88Igt6EX4mf42Ejd1381puAFfXPfLKAtTCDvsx7CsSzazOSYzoMc1p1y5Uw4yIMDgP0EdNRw0b85p+1v8qPTQeDhetZok/jf5y90R/ZNKC/rWqpdMOxuyvNcr7557+56d6T/E9w/AA==);strokeColor=#000000;spacingTop=-3;spacingBottom=-3;spacingLeft=-3;spacingRight=-3;points=[];labelBackgroundColor=none;rounded=0;html=1;whiteSpace=wrap;" vertex="1" parent="1">
            <mxGeometry x="221" y="572" width="139" height="84" as="geometry" />
          </mxCell>
        </UserObject>
        <UserObject label="&lt;div style=&quot;font-size: 1px&quot;&gt;&lt;p style=&quot;text-align:center;margin-left:0;margin-right:0;margin-top:0px;margin-bottom:0px;text-indent:0;vertical-align:middle;direction:ltr;&quot;&gt;&lt;font style=&quot;font-size:12px;font-family:0;color:#000000;direction:ltr;letter-spacing:0px;line-height:120%;opacity:1&quot;&gt;Redis&lt;/font&gt;&lt;/p&gt;&lt;/div&gt;" tags="Background" id="hM3NfsC3jh-NaaqlE_IG-18">
          <mxCell style="verticalAlign=middle;align=center;overflow=width;vsdxID=18;fillColor=#FFFFFF;gradientColor=none;shape=stencil(nZNBEoIwDEVP06VMSXSQNeo9GCnSESlTQPH2UivSFgR1l7Qv+eknEIyqLC4ZAVrVUpzZjSd1RnBHAHiRMcnrLiK4JxilQrKTFE2R6LyMFamii7iqDq2u8zeqBOhdp/SZHTSZ88Igt6EX4mf42Ejd1381puAFfXPfLKAtTCDvsx7CsSzazOSYzoMc1p1y5Uw4yIMDgP0EdNRw0b85p+1v8qPTQeDhetZok/jf5y90R/ZNKC/rWqpdMOxuyvNcr7557+56d6T/E9w/AA==);strokeColor=#000000;spacingTop=-3;spacingBottom=-3;spacingLeft=-3;spacingRight=-3;points=[];labelBackgroundColor=none;rounded=0;html=1;whiteSpace=wrap;" vertex="1" parent="1">
            <mxGeometry x="538" y="572" width="139" height="84" as="geometry" />
          </mxCell>
        </UserObject>
        <UserObject label="&lt;div style=&quot;font-size: 1px&quot;&gt;&lt;p style=&quot;text-align:center;margin-left:0;margin-right:0;margin-top:0px;margin-bottom:0px;text-indent:0;vertical-align:middle;direction:ltr;&quot;&gt;&lt;font style=&quot;font-size:12px;font-family:0;color:#000000;direction:ltr;letter-spacing:0px;line-height:120%;opacity:1&quot;&gt;ReactJS&lt;/font&gt;&lt;/p&gt;&lt;/div&gt;" tags="Background" id="hM3NfsC3jh-NaaqlE_IG-19">
          <mxCell style="verticalAlign=middle;align=center;overflow=width;vsdxID=19;fillColor=#FFFFFF;gradientColor=none;shape=stencil(lVJBEoIwDHxNr522UcaeEf/BDEU6IsUKir+XGpQWEMdbNtl0k3QJxNcirRUR7NpYc1J3nTUFgT0RQleFsrrpIwIJgTg3Vh2taasMcZ06povO5uZe6LCPuQ7BHog4o5F8ZQ5IvrRp5sg8ZIewEwiBbvhAED5heKvUlScsI7qVgThbEeZsXXqsiy+bhOojH/FOUuD/6H8S7wn8fSZDLU7gHWuRvX75mfxk/dk+ofiPX++D0S+5Lku0m1+f+qtPoTcheQI=);strokeColor=#000000;spacingTop=-3;spacingBottom=-3;spacingLeft=-3;spacingRight=-3;points=[];labelBackgroundColor=none;rounded=0;html=1;whiteSpace=wrap;" vertex="1" parent="1">
            <mxGeometry x="237" y="219" width="117" height="37" as="geometry" />
          </mxCell>
        </UserObject>
        <UserObject label="" tags="Background" id="hM3NfsC3jh-NaaqlE_IG-21">
          <mxCell style="vsdxID=21;fillColor=none;gradientColor=none;shape=stencil(nZBLDoAgDAVP0z3SIyjeg0SURgWD+Lu9EGL8xBW7N828Ji1gOWs5KeBs9s72aqPGa8AKOCejlSMfEqAALFvrVOfsYprEk4xmTKNd44Y99VhscHY8qU7iQOYhFixbvfhXzlZfYgj3hQG+54dReh2KEw==);strokeColor=none;strokeWidth=0;spacingTop=-3;spacingBottom=-3;spacingLeft=-3;spacingRight=-3;points=[];labelBackgroundColor=none;rounded=0;html=1;whiteSpace=wrap;" vertex="1" parent="1">
            <mxGeometry x="77" y="670" width="832" height="21" as="geometry" />
          </mxCell>
        </UserObject>
        <UserObject label="&lt;div style=&quot;font-size: 1px&quot;&gt;&lt;p style=&quot;text-align:center;margin-left:0;margin-right:0;margin-top:0px;margin-bottom:0px;text-indent:0;vertical-align:middle;direction:ltr;&quot;&gt;&lt;font style=&quot;font-size:12px;font-family:0;color:#000000;direction:ltr;letter-spacing:0px;line-height:120%;opacity:1&quot;&gt;Spring Gateway&lt;/font&gt;&lt;/p&gt;&lt;/div&gt;" tags="Background" id="hM3NfsC3jh-NaaqlE_IG-22">
          <mxCell style="verticalAlign=middle;align=center;overflow=width;vsdxID=22;fillColor=#ffcc99;gradientColor=none;shape=stencil(lVJBEoIwDHxNr52SgsIZ8R/MUKQjUiyg+HupQWkBcbxlk003SZfwuCnSWhBgTavVWdxl1haEHwiArAqhZTtEhCeEx7nS4qRVV2WI69QwTXRRN/NCj33MdAB7IPJ8yuCVOSL52qWZIXsu24U9IAQa7EYC2ITxrVJWlnC0p77viLMNYY9tS091+LKJqz7xEYcBjcJ/9D+J9wT2PrOhViewjrXK3r78Qn62/mIfV/zHrw/B5JdcliXaza7P/TWk0Js8eQI=);strokeColor=#000000;spacingTop=-3;spacingBottom=-3;spacingLeft=-3;spacingRight=-3;points=[];labelBackgroundColor=none;rounded=0;html=1;whiteSpace=wrap;" vertex="1" parent="1">
            <mxGeometry x="572" y="313" width="156" height="28" as="geometry" />
          </mxCell>
        </UserObject>
        <UserObject label="&lt;div style=&quot;font-size: 1px&quot;&gt;&lt;p style=&quot;text-align:center;margin-left:0;margin-right:0;margin-top:0px;margin-bottom:0px;text-indent:0;vertical-align:top;direction:ltr;&quot;&gt;&lt;font style=&quot;font-size:17px;font-family:0;color:#000000;direction:ltr;letter-spacing:0px;line-height:120%;opacity:1&quot;&gt;运维监控&lt;/font&gt;&lt;/p&gt;&lt;/div&gt;" tags="Background" id="hM3NfsC3jh-NaaqlE_IG-23">
          <mxCell style="verticalAlign=top;align=center;overflow=width;vsdxID=23;fillColor=#6acbf5;gradientColor=none;shape=stencil(fVLbEoIgEP0aXhlYsslns/9wRkwmE0Mt+/sgKAEd3vZylnPOsogVY1sNHAEZJyVv/CXqqUXsjABE33IlJh0hViJWNFLxq5JzX9t8qAzSRHf5NC8sdo6YCSBvl+FT9i1cLPYxV7XB0hAcpgvYlOFD7gDgA9xbneg93vyIMxpyJ4gpSVOvfdg3EpKvcCcmxzTle0P/L/wE+HYiTbsKvF3totOL39BH7jd+QvL0n+tgPZZGdJ29Nb8fH5cu2cNk5Qc=);strokeColor=#000000;spacingTop=-3;spacingBottom=-3;spacingLeft=-3;spacingRight=-3;points=[];labelBackgroundColor=none;rounded=0;html=1;whiteSpace=wrap;" vertex="1" parent="1">
            <mxGeometry x="921" y="207" width="114" height="468" as="geometry" />
          </mxCell>
        </UserObject>
        <UserObject label="&lt;div style=&quot;font-size: 1px&quot;&gt;&lt;p style=&quot;text-align:center;margin-left:0;margin-right:0;margin-top:0px;margin-bottom:0px;text-indent:0;vertical-align:middle;direction:ltr;&quot;&gt;&lt;font style=&quot;font-size:12px;font-family:0;color:#000000;direction:ltr;letter-spacing:0px;line-height:120%;opacity:1&quot;&gt;Echarts&lt;/font&gt;&lt;/p&gt;&lt;/div&gt;" tags="Background" id="hM3NfsC3jh-NaaqlE_IG-24">
          <mxCell style="verticalAlign=middle;align=center;overflow=width;vsdxID=24;fillColor=#FFFFFF;gradientColor=none;shape=stencil(lVJBEoIwDHxNr522UcaeEf/BDEU6IsUKir+XGpQWEMdbNtl0k3QJxNcirRUR7NpYc1J3nTUFgT0RQleFsrrpIwIJgTg3Vh2taasMcZ06povO5uZe6LCPuQ7BHog4o5F8ZQ5IvrRp5sg8ZIewEwiBbvhAED5heKvUlScsI7qVgThbEeZsXXqsiy+bhOojH/FOUuD/6H8S7wn8fSZDLU7gHWuRvX75mfxk/dk+ofiPX++D0S+5Lku0m1+f+qtPoTcheQI=);strokeColor=#000000;spacingTop=-3;spacingBottom=-3;spacingLeft=-3;spacingRight=-3;points=[];labelBackgroundColor=none;rounded=0;html=1;whiteSpace=wrap;" vertex="1" parent="1">
            <mxGeometry x="467" y="219" width="117" height="37" as="geometry" />
          </mxCell>
        </UserObject>
        <UserObject label="&lt;div style=&quot;font-size: 1px&quot;&gt;&lt;p style=&quot;text-align:center;margin-left:0;margin-right:0;margin-top:0px;margin-bottom:0px;text-indent:0;vertical-align:middle;direction:ltr;&quot;&gt;&lt;font style=&quot;font-size:12px;font-family:0;color:#000000;direction:ltr;letter-spacing:0px;line-height:120%;opacity:1&quot;&gt;Ant-Design&lt;/font&gt;&lt;/p&gt;&lt;/div&gt;" tags="Background" id="hM3NfsC3jh-NaaqlE_IG-25">
          <mxCell style="verticalAlign=middle;align=center;overflow=width;vsdxID=25;fillColor=#FFFFFF;gradientColor=none;shape=stencil(lVJBEoIwDHxNr522UcaeEf/BDEU6IsUKir+XGpQWEMdbNtl0k3QJxNcirRUR7NpYc1J3nTUFgT0RQleFsrrpIwIJgTg3Vh2taasMcZ06povO5uZe6LCPuQ7BHog4o5F8ZQ5IvrRp5sg8ZIewEwiBbvhAED5heKvUlScsI7qVgThbEeZsXXqsiy+bhOojH/FOUuD/6H8S7wn8fSZDLU7gHWuRvX75mfxk/dk+ofiPX++D0S+5Lku0m1+f+qtPoTcheQI=);strokeColor=#000000;spacingTop=-3;spacingBottom=-3;spacingLeft=-3;spacingRight=-3;points=[];labelBackgroundColor=none;rounded=0;html=1;whiteSpace=wrap;" vertex="1" parent="1">
            <mxGeometry x="706" y="219" width="117" height="37" as="geometry" />
          </mxCell>
        </UserObject>
        <UserObject label="&lt;div style=&quot;font-size: 1px&quot;&gt;&lt;p style=&quot;text-align:center;margin-left:0;margin-right:0;margin-top:0px;margin-bottom:0px;text-indent:0;vertical-align:middle;direction:ltr;&quot;&gt;&lt;font style=&quot;font-size:12px;font-family:0;color:#000000;direction:ltr;letter-spacing:0px;line-height:120%;opacity:1&quot;&gt;OceanBase&lt;/font&gt;&lt;/p&gt;&lt;/div&gt;" tags="Background" id="hM3NfsC3jh-NaaqlE_IG-26">
          <mxCell style="verticalAlign=middle;align=center;overflow=width;vsdxID=26;fillColor=#FFFFFF;gradientColor=none;shape=stencil(nZNBEoIwDEVP06VMSXSQNeo9GCnSESlTQPH2UivSFgR1l7Qv+eknEIyqLC4ZAVrVUpzZjSd1RnBHAHiRMcnrLiK4JxilQrKTFE2R6LyMFamii7iqDq2u8zeqBOhdp/SZHTSZ88Igt6EX4mf42Ejd1381puAFfXPfLKAtTCDvsx7CsSzazOSYzoMc1p1y5Uw4yIMDgP0EdNRw0b85p+1v8qPTQeDhetZok/jf5y90R/ZNKC/rWqpdMOxuyvNcr7557+56d6T/E9w/AA==);strokeColor=#000000;spacingTop=-3;spacingBottom=-3;spacingLeft=-3;spacingRight=-3;points=[];labelBackgroundColor=none;rounded=0;html=1;whiteSpace=wrap;" vertex="1" parent="1">
            <mxGeometry x="382" y="572" width="139" height="84" as="geometry" />
          </mxCell>
        </UserObject>
        <UserObject label="&lt;div style=&quot;font-size: 1px&quot;&gt;&lt;p style=&quot;text-align:center;margin-left:0;margin-right:0;margin-top:0px;margin-bottom:0px;text-indent:0;vertical-align:middle;direction:ltr;&quot;&gt;&lt;font style=&quot;font-size:12px;font-family:0;color:#000000;direction:ltr;letter-spacing:0px;line-height:120%;opacity:1&quot;&gt;TDH&lt;/font&gt;&lt;/p&gt;&lt;/div&gt;" tags="Background" id="hM3NfsC3jh-NaaqlE_IG-27">
          <mxCell style="verticalAlign=middle;align=center;overflow=width;vsdxID=27;fillColor=#FFFFFF;gradientColor=none;shape=stencil(nZNBEoIwDEVP06VMSXSQNeo9GCnSESlTQPH2UivSFgR1l7Qv+eknEIyqLC4ZAVrVUpzZjSd1RnBHAHiRMcnrLiK4JxilQrKTFE2R6LyMFamii7iqDq2u8zeqBOhdp/SZHTSZ88Igt6EX4mf42Ejd1381puAFfXPfLKAtTCDvsx7CsSzazOSYzoMc1p1y5Uw4yIMDgP0EdNRw0b85p+1v8qPTQeDhetZok/jf5y90R/ZNKC/rWqpdMOxuyvNcr7557+56d6T/E9w/AA==);strokeColor=#000000;spacingTop=-3;spacingBottom=-3;spacingLeft=-3;spacingRight=-3;points=[];labelBackgroundColor=none;rounded=0;html=1;whiteSpace=wrap;" vertex="1" parent="1">
            <mxGeometry x="698" y="572" width="139" height="84" as="geometry" />
          </mxCell>
        </UserObject>
        <UserObject label="&lt;div style=&quot;font-size: 1px&quot;&gt;&lt;p style=&quot;text-align:center;margin-left:0;margin-right:0;margin-top:0px;margin-bottom:0px;text-indent:0;vertical-align:middle;direction:ltr;&quot;&gt;&lt;font style=&quot;font-size:12px;font-family:0;color:#000000;direction:ltr;letter-spacing:0px;line-height:120%;opacity:1&quot;&gt;Zeus微服务框架&lt;/font&gt;&lt;/p&gt;&lt;/div&gt;" tags="Background" id="hM3NfsC3jh-NaaqlE_IG-28">
          <mxCell style="verticalAlign=middle;align=center;overflow=width;vsdxID=28;fillColor=#a6aef3;gradientColor=none;shape=stencil(lVLbDoMgDP0aXgkWdfHZuf8wESeZE4eXub+frG6CGpK99bSnnNNSwtOuyltBgHW9VjfxlEVfEX4mALKphJb9HBGeEZ6WSourVkNTIG5zwzTRXY3mhQn7mOkA9kIUUZ58EhfkPoa8MNzAJbtwAoQhhXAhgE1Y3qplY+kmET3FjjbzCAfML73W4XgQV3ylL2ZCGgf/yP8SXwP2OBtPhw6sXR2y/YvfyW+m383jivv/fA7WYyllXeOt2fXtcc0pPEyevQE=);strokeColor=#000000;spacingTop=-3;spacingBottom=-3;spacingLeft=-3;spacingRight=-3;points=[];labelBackgroundColor=none;rounded=0;html=1;whiteSpace=wrap;" vertex="1" parent="1">
            <mxGeometry x="720" y="383" width="94" height="74" as="geometry" />
          </mxCell>
        </UserObject>
        <UserObject label="&lt;div style=&quot;font-size: 1px&quot;&gt;&lt;p style=&quot;text-align:center;margin-left:0;margin-right:0;margin-top:0px;margin-bottom:0px;text-indent:0;vertical-align:middle;direction:ltr;&quot;&gt;&lt;font style=&quot;font-size:12px;font-family:0;color:#000000;direction:ltr;letter-spacing:0px;line-height:120%;opacity:1&quot;&gt;MyBatisPlus&lt;/font&gt;&lt;/p&gt;&lt;/div&gt;" tags="Background" id="hM3NfsC3jh-NaaqlE_IG-29">
          <mxCell style="verticalAlign=middle;align=center;overflow=width;vsdxID=29;fillColor=#a6aef3;gradientColor=none;shape=stencil(lVLRDoIwDPyavS6lMxCeEf+DhCGLyHCC4t/LLMoGZIlvvfa6u3ZlIrvXRScZwr03+iKfquxrJo4MUbW1NKqfIiZyJrJKG3k2emhLwl1hmTa66od9YaQ+sB0IL0IJT+NP4kTc21CUlhv5ZB+OSFDwNJkJ6BLmtxrVOrppzEF42hAQjiAsvdRxfxBffKHPZpDD4R/5X+JrwB1n5WnXgbOrXXZ48Rv51fSbeXzx8J9PwXIslWoaujW3vj6uKUWHKfI3);strokeColor=#000000;spacingTop=-3;spacingBottom=-3;spacingLeft=-3;spacingRight=-3;points=[];labelBackgroundColor=none;rounded=0;html=1;whiteSpace=wrap;" vertex="1" parent="1">
            <mxGeometry x="187" y="383" width="100" height="50" as="geometry" />
          </mxCell>
        </UserObject>
        <UserObject label="&lt;div style=&quot;font-size: 1px&quot;&gt;&lt;p style=&quot;text-align:center;margin-left:0;margin-right:0;margin-top:0px;margin-bottom:0px;text-indent:0;vertical-align:middle;direction:ltr;&quot;&gt;&lt;font style=&quot;font-size:12px;font-family:0;color:#000000;direction:ltr;letter-spacing:0px;line-height:120%;opacity:1&quot;&gt;OpenFeign&lt;/font&gt;&lt;/p&gt;&lt;/div&gt;" tags="Background" id="hM3NfsC3jh-NaaqlE_IG-30">
          <mxCell style="verticalAlign=middle;align=center;overflow=width;vsdxID=30;fillColor=#a6aef3;gradientColor=none;shape=stencil(lVLRDoIwDPyavS6jNRCeEf+DhCGLyHCC4t/LLMoGZIlvvfa6u3ZlmN3ropMMxL03+iKfquxrhkcGoNpaGtVPEcOcYVZpI89GD21JuCss00ZX/bAvjNQnbAeIF6GEp/EncSLubShKy418sg9HIIg8wZkALmF+q1Gto5vGHBJPWwSEIxGWXuqwP4gvvtBnM8DF4R/5X+JrwB1n5WnXgbOrXXZ48Rv51fSbeXzx8J9PwXIslWoaujW3vj6uKUWHifkb);strokeColor=#000000;spacingTop=-3;spacingBottom=-3;spacingLeft=-3;spacingRight=-3;points=[];labelBackgroundColor=none;rounded=0;html=1;whiteSpace=wrap;" vertex="1" parent="1">
            <mxGeometry x="303" y="383" width="107" height="50" as="geometry" />
          </mxCell>
        </UserObject>
        <UserObject label="&lt;div style=&quot;font-size: 1px&quot;&gt;&lt;p style=&quot;text-align:center;margin-left:0;margin-right:0;margin-top:0px;margin-bottom:0px;text-indent:0;vertical-align:middle;direction:ltr;&quot;&gt;&lt;font style=&quot;font-size:12px;font-family:0;color:#000000;direction:ltr;letter-spacing:0px;line-height:120%;opacity:1&quot;&gt;Spring Security&lt;/font&gt;&lt;/p&gt;&lt;/div&gt;" tags="Background" id="hM3NfsC3jh-NaaqlE_IG-31">
          <mxCell style="verticalAlign=middle;align=center;overflow=width;vsdxID=31;fillColor=#a6aef3;gradientColor=none;shape=stencil(lVLRDoIwDPyavS6jQwnPiP9BwpBFZDiG4t/LLMoGZIlvvfa6u3YlPOvrohMEWG+0uoqnLE1N+IkAyLYWWpopIjwnPKuUFhethrZE3BWWaaObetgXRuxjtgPYC1FC0+MncUbufShKy418sg9HQAj0kMwEcAnzW41sHd00oTH3tFlAOGJh6aUO+4P44gt9NgOUxf/I/xJfA+44K0+7Dpxd7bLDi9/Ir6bfzOOLh/98CpZjqWTT4K259fVxTSk8TJ6/AQ==);strokeColor=#000000;spacingTop=-3;spacingBottom=-3;spacingLeft=-3;spacingRight=-3;points=[];labelBackgroundColor=none;rounded=0;html=1;whiteSpace=wrap;" vertex="1" parent="1">
            <mxGeometry x="542" y="439" width="155" height="50" as="geometry" />
          </mxCell>
        </UserObject>
        <UserObject label="&lt;div style=&quot;font-size: 1px&quot;&gt;&lt;p style=&quot;text-align:center;margin-left:0;margin-right:0;margin-top:0px;margin-bottom:0px;text-indent:0;vertical-align:middle;direction:ltr;&quot;&gt;&lt;font style=&quot;font-size:12px;font-family:0;color:#000000;direction:ltr;letter-spacing:0px;line-height:120%;opacity:1&quot;&gt;SpringCloudAlibaba&lt;/font&gt;&lt;/p&gt;&lt;/div&gt;" tags="Background" id="hM3NfsC3jh-NaaqlE_IG-32">
          <mxCell style="verticalAlign=middle;align=center;overflow=width;vsdxID=32;fillColor=#92cee8;gradientColor=none;shape=stencil(lVLRDoIwDPyavS5bZwSeEf+DhCGLyHCA4t/LLMIGBONbr73url2JiJsirSUB1rRGX+VTZW1BxIkAqKqQRrVDRERCRJxrIy9Gd1WGuE4t00Y3/bAv9NjHbAewF6KARsdP4ozce5dmlst9sg97QMgpD0YCuITxrVJVjm4U0lB42mxHmLMf0lMdtgfxxWf6aAYoO/wjPyW+BtxxFp62Hcy72mTvL34lv5h+NY8vvv/nQzAfS67KEm/NrS+Pa0jhYYrkDQ==);strokeColor=#000000;spacingTop=-3;spacingBottom=-3;spacingLeft=-3;spacingRight=-3;points=[];labelBackgroundColor=none;rounded=0;html=1;whiteSpace=wrap;" vertex="1" parent="1">
            <mxGeometry x="187" y="439" width="341" height="50" as="geometry" />
          </mxCell>
        </UserObject>
        <UserObject label="&lt;div style=&quot;font-size: 1px&quot;&gt;&lt;p style=&quot;text-align:center;margin-left:0;margin-right:0;margin-top:0px;margin-bottom:0px;text-indent:0;vertical-align:middle;direction:ltr;&quot;&gt;&lt;font style=&quot;font-size:12px;font-family:0;color:#000000;direction:ltr;letter-spacing:0px;line-height:120%;opacity:1&quot;&gt;Alibaba Cola 4.0&lt;/font&gt;&lt;/p&gt;&lt;/div&gt;" tags="Background" id="hM3NfsC3jh-NaaqlE_IG-33">
          <mxCell style="verticalAlign=middle;align=center;overflow=width;vsdxID=33;fillColor=#a6aef3;gradientColor=none;shape=stencil(lVLbDoMgDP0aXgmWZc5n5/7DRJxkThxe5v5+MNhANCR762lPOaeliOZDU/YMARlGKW7syauxQfSMAHjXMMlHFSFaIJrXQrKrFFNXGdyXmqmju5j1C4vpI7oDyMugFGfHT+JiuI+prDQ3WZPXcAELcXqyBPAJ9q2Wd55ulmFd87RJRDghcWlXh/1B1uKObs0AJod/5H+JrwF/nMDTrgNvV7vs+OI38sH0m3kC8eifq8AdS83b1tyaXw+PS6XMYdLiDQ==);strokeColor=#000000;spacingTop=-3;spacingBottom=-3;spacingLeft=-3;spacingRight=-3;points=[];labelBackgroundColor=none;rounded=0;html=1;whiteSpace=wrap;" vertex="1" parent="1">
            <mxGeometry x="187" y="496" width="510" height="50" as="geometry" />
          </mxCell>
        </UserObject>
        <UserObject label="&lt;div style=&quot;font-size: 1px&quot;&gt;&lt;p style=&quot;text-align:center;margin-left:0;margin-right:0;margin-top:0px;margin-bottom:0px;text-indent:0;vertical-align:middle;direction:ltr;&quot;&gt;&lt;font style=&quot;font-size:12px;font-family:0;color:#000000;direction:ltr;letter-spacing:0px;line-height:120%;opacity:1&quot;&gt;redisson&lt;/font&gt;&lt;/p&gt;&lt;/div&gt;" tags="Background" id="hM3NfsC3jh-NaaqlE_IG-34">
          <mxCell style="verticalAlign=middle;align=center;overflow=width;vsdxID=34;fillColor=#a6aef3;gradientColor=none;shape=stencil(lVLRDoIwDPyavS6jQwnPiP9BwpBFZDiG4t/LLMoGZIlvvfa6u3YlPOvrohMEWG+0uoqnLE1N+IkAyLYWWpopIjwnPKuUFhethrZE3BWWaaObetgXRuxjtgPYC1FC0+MncUbufShKy418sg9HQAj0kMwEcAnzW41sHd00oTH3tFlAOGJh6aUO+4P44gt9NgOUxf/I/xJfA+44K0+7Dpxd7bLDi9/Ir6bfzOOLh/98CpZjqWTT4K259fVxTSk8TJ6/AQ==);strokeColor=#000000;spacingTop=-3;spacingBottom=-3;spacingLeft=-3;spacingRight=-3;points=[];labelBackgroundColor=none;rounded=0;html=1;whiteSpace=wrap;" vertex="1" parent="1">
            <mxGeometry x="542" y="383" width="155" height="50" as="geometry" />
          </mxCell>
        </UserObject>
        <UserObject label="&lt;div style=&quot;font-size: 1px&quot;&gt;&lt;p style=&quot;text-align:center;margin-left:0;margin-right:0;margin-top:0px;margin-bottom:0px;text-indent:0;vertical-align:middle;direction:ltr;&quot;&gt;&lt;font style=&quot;font-size:12px;font-family:0;color:#000000;direction:ltr;letter-spacing:0px;line-height:120%;opacity:1&quot;&gt;CI/CD&lt;/font&gt;&lt;/p&gt;&lt;/div&gt;" tags="Background" id="hM3NfsC3jh-NaaqlE_IG-35">
          <mxCell style="verticalAlign=middle;align=center;overflow=width;vsdxID=35;fillColor=#FFFFFF;gradientColor=none;shape=stencil(lVLLDoIwEPyaXpuy1YBnxP8goUgjUiwP8e+lLtoWSBNv+5jtzG6H8LSr8lYQYF2v1U08ZdFXhJ8JgGwqoWU/R4RnhKel0uKq1dAUmLe5QZrorkbzwoRzzEwAe2EW0yj+FC6IfQx5YbCRD/bTCTA9UFj64PaXp2rZOLSnI008ZhagjViY2PZhfw2f28IXLUAT/g/9r/AV4GyzkrQrwB5qFxw++oZ8tftmG587/N9zYI1SyrpGn7n9tbHmEpqSZ28=);strokeColor=#000000;spacingTop=-3;spacingBottom=-3;spacingLeft=-3;spacingRight=-3;points=[];labelBackgroundColor=none;rounded=0;html=1;whiteSpace=wrap;" vertex="1" parent="1">
            <mxGeometry x="931" y="256" width="95" height="55" as="geometry" />
          </mxCell>
        </UserObject>
        <UserObject label="&lt;div style=&quot;font-size: 1px&quot;&gt;&lt;p style=&quot;text-align:center;margin-left:0;margin-right:0;margin-top:0px;margin-bottom:0px;text-indent:0;vertical-align:middle;direction:ltr;&quot;&gt;&lt;font style=&quot;font-size:12px;font-family:0;color:#000000;direction:ltr;letter-spacing:0px;line-height:120%;opacity:1&quot;&gt;日志监控&lt;/font&gt;&lt;/p&gt;&lt;/div&gt;" tags="Background" id="hM3NfsC3jh-NaaqlE_IG-36">
          <mxCell style="verticalAlign=middle;align=center;overflow=width;vsdxID=36;fillColor=#FFFFFF;gradientColor=none;shape=stencil(lVLLDoIwEPyaXpuyhShnxP8goUgjUiyg+PdSF20LpIm3fcx2ZrdDeNbXRScIsH7Q6iqeshxqwk8EQLa10HKYI8JzwrNKaXHRamxLzLvCIE10Uw/zwoRzzEwAe2F2oHH6KZwRex+L0mAjH+ynE2AaU1j64PaXpxrZOrRpQo8eMwvQRixMbPuwv4bPbeGLFqBJ9A/9r/AV4GyzkrQrwB5qFxw++oZ8tftmG587/N9zYI1SyaZBn7n9tbHmEpqS528=);strokeColor=#000000;spacingTop=-3;spacingBottom=-3;spacingLeft=-3;spacingRight=-3;points=[];labelBackgroundColor=none;rounded=0;html=1;whiteSpace=wrap;" vertex="1" parent="1">
            <mxGeometry x="931" y="336" width="95" height="53" as="geometry" />
          </mxCell>
        </UserObject>
        <UserObject label="&lt;div style=&quot;font-size: 1px&quot;&gt;&lt;p style=&quot;text-align:center;margin-left:0;margin-right:0;margin-top:0px;margin-bottom:0px;text-indent:0;vertical-align:middle;direction:ltr;&quot;&gt;&lt;font style=&quot;font-size:12px;font-family:0;color:#000000;direction:ltr;letter-spacing:0px;line-height:120%;opacity:1&quot;&gt;主机监控&lt;/font&gt;&lt;/p&gt;&lt;/div&gt;" tags="Background" id="hM3NfsC3jh-NaaqlE_IG-37">
          <mxCell style="verticalAlign=middle;align=center;overflow=width;vsdxID=37;fillColor=#FFFFFF;gradientColor=none;shape=stencil(lVLLDoIwEPyaXpuy1YBnxP8goUgjUiwP8e+lLtoWSBNv+5jtzG6H8LSr8lYQYF2v1U08ZdFXhJ8JgGwqoWU/R4RnhKel0uKq1dAUmLe5QZrorkbzwoRzzEwAe2EW0yj+FC6IfQx5YbCRD/bTCTA9UFj64PaXp2rZOLSnI008ZhagjViY2PZhfw2f28IXLUAT/g/9r/AV4GyzkrQrwB5qFxw++oZ8tftmG587/N9zYI1SyrpGn7n9tbHmEpqSZ28=);strokeColor=#000000;spacingTop=-3;spacingBottom=-3;spacingLeft=-3;spacingRight=-3;points=[];labelBackgroundColor=none;rounded=0;html=1;whiteSpace=wrap;" vertex="1" parent="1">
            <mxGeometry x="931" y="581" width="95" height="55" as="geometry" />
          </mxCell>
        </UserObject>
        <UserObject label="&lt;div style=&quot;font-size: 1px&quot;&gt;&lt;p style=&quot;text-align:center;margin-left:0;margin-right:0;margin-top:0px;margin-bottom:0px;text-indent:0;vertical-align:middle;direction:ltr;&quot;&gt;&lt;font style=&quot;font-size:12px;font-family:0;color:#000000;direction:ltr;letter-spacing:0px;line-height:120%;opacity:1&quot;&gt;Skywalking&lt;/font&gt;&lt;/p&gt;&lt;/div&gt;" tags="Background" id="hM3NfsC3jh-NaaqlE_IG-38">
          <mxCell style="verticalAlign=middle;align=center;overflow=width;vsdxID=38;fillColor=#FFFFFF;gradientColor=none;shape=stencil(lVLbEoIgEP0aXhlcaqxns/9wRkwmE0Ms+/uktQB1mOltL2c5Z5dDeNbXRScIsN5odRVPWZqa8BMBkG0ttDRTRHhOeFYpLS5aDW2JeVdYpI1u6mFfGHGO2QlgL8xSCumncEbsfShKi01CcJiOgOmOwtwHvz8/1cjWoz3u6SFgZhHahMWJXR+21wi5HXzWAjTl/9D/Cl8B3jYLSZsC3KE2wfGjr8gXu6+2Cbnj/z0FziiVbBr0md9fGmsqoSl5/gY=);strokeColor=#000000;spacingTop=-3;spacingBottom=-3;spacingLeft=-3;spacingRight=-3;points=[];labelBackgroundColor=none;rounded=0;html=1;whiteSpace=wrap;" vertex="1" parent="1">
            <mxGeometry x="931" y="415" width="95" height="55" as="geometry" />
          </mxCell>
        </UserObject>
        <UserObject label="&lt;div style=&quot;font-size: 1px&quot;&gt;&lt;p style=&quot;text-align:center;margin-left:0;margin-right:0;margin-top:0px;margin-bottom:0px;text-indent:0;vertical-align:middle;direction:ltr;&quot;&gt;&lt;font style=&quot;font-size:12px;font-family:0;color:#000000;direction:ltr;letter-spacing:0px;line-height:120%;opacity:1&quot;&gt;接口监控&lt;/font&gt;&lt;/p&gt;&lt;/div&gt;" tags="Background" id="hM3NfsC3jh-NaaqlE_IG-39">
          <mxCell style="verticalAlign=middle;align=center;overflow=width;vsdxID=39;fillColor=#FFFFFF;gradientColor=none;shape=stencil(lZLbDoIwDIafZrfL6NTINeJ7kDBkERmOg/j2MovuIFniXf/27751K+FZXxedIMD6QaureMhyqAk/EQDZ1kLLYYkIzwnPKqXFRauxLVF3hXGa6KYmc8KMfcx0AHuiOtD0rc9ovY9FaayJ7/XlDCh3FNY6uPX1qEa2DjXd06MHZhFswuJgW4fNKXy0da9X4TT5B/5NfPDOLMGFNvn2mTbN8Sf/gQeTh8P46OhfL4HdkUo2Da6YWw93aknhPvL8BQ==);strokeColor=#000000;spacingTop=-3;spacingBottom=-3;spacingLeft=-3;spacingRight=-3;points=[];labelBackgroundColor=none;rounded=0;html=1;whiteSpace=wrap;" vertex="1" parent="1">
            <mxGeometry x="931" y="497" width="95" height="57" as="geometry" />
          </mxCell>
        </UserObject>
        <UserObject label="&lt;div style=&quot;font-size: 1px&quot;&gt;&lt;p style=&quot;text-align:center;margin-left:0;margin-right:0;margin-top:0px;margin-bottom:0px;text-indent:0;vertical-align:middle;direction:ltr;&quot;&gt;&lt;font style=&quot;font-size:12px;font-family:0;color:#000000;direction:ltr;letter-spacing:0px;line-height:120%;opacity:1&quot;&gt;Quartz&lt;/font&gt;&lt;/p&gt;&lt;/div&gt;" tags="Background" id="hM3NfsC3jh-NaaqlE_IG-40">
          <mxCell style="verticalAlign=middle;align=center;overflow=width;vsdxID=40;fillColor=#a6aef3;gradientColor=none;shape=stencil(lVLRDoIwDPyavS6jMwjPiP9BwpBFZDiG4t/LLMoGZIlvvfa6u3YlPOvrohMEWG+0uoqnLE1N+IkAyLYWWpopIjwnPKuUFhethrZE3BWWaaObetgXRuxjtgPYC9GRpvEncUbufShKy418sg9HQMhpkswEcAnzW41sHd00phF42iwgHLGw9FKH/UF88YU+mwHKDv/I/xJfA+44K0+7Dpxd7bLDi9/Ir6bfzOOLh/98CpZjqWTT4K259fVxTSk8TJ6/AQ==);strokeColor=#000000;spacingTop=-3;spacingBottom=-3;spacingLeft=-3;spacingRight=-3;points=[];labelBackgroundColor=none;rounded=0;html=1;whiteSpace=wrap;" vertex="1" parent="1">
            <mxGeometry x="425" y="383" width="103" height="50" as="geometry" />
          </mxCell>
        </UserObject>
        <mxCell id="hM3NfsC3jh-NaaqlE_IG-42" value="" style="line;strokeWidth=2;html=1;dashed=1;fillColor=#647687;fontColor=#ffffff;strokeColor=#314354;" vertex="1" parent="1">
          <mxGeometry x="110" y="279" width="790" height="10" as="geometry" />
        </mxCell>
        <mxCell id="hM3NfsC3jh-NaaqlE_IG-45" value="" style="line;strokeWidth=2;html=1;dashed=1;fillColor=#647687;fontColor=#ffffff;strokeColor=#314354;" vertex="1" parent="1">
          <mxGeometry x="110" y="362" width="790" height="10" as="geometry" />
        </mxCell>
        <mxCell id="hM3NfsC3jh-NaaqlE_IG-46" value="" style="line;strokeWidth=2;html=1;dashed=1;fillColor=#647687;fontColor=#ffffff;strokeColor=#314354;" vertex="1" parent="1">
          <mxGeometry x="111" y="547.5" width="790" height="10" as="geometry" />
        </mxCell>
        <mxCell id="hM3NfsC3jh-NaaqlE_IG-47" value="" style="line;strokeWidth=2;html=1;dashed=1;fillColor=#647687;fontColor=#ffffff;strokeColor=#314354;" vertex="1" parent="1">
          <mxGeometry x="114" y="665" width="790" height="10" as="geometry" />
        </mxCell>
      </root>
    </mxGraphModel>
  </diagram>
</mxfile>
